<mxfile host="Electron" agent="Mozilla/5.0 (Windows NT 10.0; Win64; x64) AppleWebKit/537.36 (KHTML, like Gecko) draw.io/24.7.17 Chrome/128.0.6613.36 Electron/32.0.1 Safari/537.36" version="24.7.17">
  <diagram name="Pagina-1" id="cEnMWw1UAcBTcZiYK6px">
    <mxGraphModel dx="811" dy="470" grid="1" gridSize="10" guides="1" tooltips="1" connect="1" arrows="1" fold="1" page="1" pageScale="1" pageWidth="827" pageHeight="1169" math="1" shadow="0">
      <root>
        <mxCell id="0" />
        <mxCell id="1" parent="0" />
        <mxCell id="kHbyOIUyvhQ0lDHymLfj-1" value="" style="shape=waypoint;sketch=0;fillStyle=solid;size=6;pointerEvents=1;points=[];fillColor=none;resizable=0;rotatable=0;perimeter=centerPerimeter;snapToPoint=1;" vertex="1" parent="1">
          <mxGeometry x="404" y="370" width="20" height="20" as="geometry" />
        </mxCell>
        <mxCell id="kHbyOIUyvhQ0lDHymLfj-2" value="\(+q\)" style="text;html=1;align=center;verticalAlign=middle;whiteSpace=wrap;rounded=0;" vertex="1" parent="1">
          <mxGeometry x="400" y="350" width="24" height="30" as="geometry" />
        </mxCell>
        <mxCell id="kHbyOIUyvhQ0lDHymLfj-3" value="" style="shape=waypoint;sketch=0;fillStyle=solid;size=6;pointerEvents=1;points=[];fillColor=none;resizable=0;rotatable=0;perimeter=centerPerimeter;snapToPoint=1;" vertex="1" parent="1">
          <mxGeometry x="364" y="400" width="20" height="20" as="geometry" />
        </mxCell>
        <mxCell id="kHbyOIUyvhQ0lDHymLfj-4" value="\(+2q\)" style="text;html=1;align=center;verticalAlign=middle;whiteSpace=wrap;rounded=0;" vertex="1" parent="1">
          <mxGeometry x="360" y="380" width="24" height="30" as="geometry" />
        </mxCell>
        <mxCell id="kHbyOIUyvhQ0lDHymLfj-5" value="\(-\frac{1}{2}q\)" style="text;html=1;align=center;verticalAlign=middle;whiteSpace=wrap;rounded=0;" vertex="1" parent="1">
          <mxGeometry x="422" y="400" width="36" height="30" as="geometry" />
        </mxCell>
        <mxCell id="kHbyOIUyvhQ0lDHymLfj-6" value="" style="shape=waypoint;sketch=0;fillStyle=solid;size=6;pointerEvents=1;points=[];fillColor=none;resizable=0;rotatable=0;perimeter=centerPerimeter;snapToPoint=1;" vertex="1" parent="1">
          <mxGeometry x="430" y="420" width="20" height="20" as="geometry" />
        </mxCell>
        <mxCell id="kHbyOIUyvhQ0lDHymLfj-7" value="\(+\frac{7}{4}q\)" style="text;html=1;align=center;verticalAlign=middle;whiteSpace=wrap;rounded=0;" vertex="1" parent="1">
          <mxGeometry x="360" y="430" width="34" height="30" as="geometry" />
        </mxCell>
        <mxCell id="kHbyOIUyvhQ0lDHymLfj-8" value="" style="shape=waypoint;sketch=0;fillStyle=solid;size=6;pointerEvents=1;points=[];fillColor=none;resizable=0;rotatable=0;perimeter=centerPerimeter;snapToPoint=1;" vertex="1" parent="1">
          <mxGeometry x="370" y="450" width="20" height="20" as="geometry" />
        </mxCell>
        <mxCell id="kHbyOIUyvhQ0lDHymLfj-9" value="" style="shape=waypoint;sketch=0;fillStyle=solid;size=6;pointerEvents=1;points=[];fillColor=none;resizable=0;rotatable=0;perimeter=centerPerimeter;snapToPoint=1;" vertex="1" parent="1">
          <mxGeometry x="438" y="460" width="20" height="20" as="geometry" />
        </mxCell>
        <mxCell id="kHbyOIUyvhQ0lDHymLfj-10" value="\(-q\)" style="text;html=1;align=center;verticalAlign=middle;whiteSpace=wrap;rounded=0;" vertex="1" parent="1">
          <mxGeometry x="434" y="440" width="24" height="30" as="geometry" />
        </mxCell>
        <mxCell id="kHbyOIUyvhQ0lDHymLfj-11" value="" style="shape=waypoint;sketch=0;fillStyle=solid;size=6;pointerEvents=1;points=[];fillColor=none;resizable=0;rotatable=0;perimeter=centerPerimeter;snapToPoint=1;" vertex="1" parent="1">
          <mxGeometry x="464" y="395" width="20" height="20" as="geometry" />
        </mxCell>
        <mxCell id="kHbyOIUyvhQ0lDHymLfj-12" value="\(+6q\)" style="text;html=1;align=center;verticalAlign=middle;whiteSpace=wrap;rounded=0;" vertex="1" parent="1">
          <mxGeometry x="460" y="375" width="24" height="30" as="geometry" />
        </mxCell>
        <mxCell id="kHbyOIUyvhQ0lDHymLfj-13" value="" style="shape=waypoint;sketch=0;fillStyle=solid;size=6;pointerEvents=1;points=[];fillColor=none;resizable=0;rotatable=0;perimeter=centerPerimeter;snapToPoint=1;" vertex="1" parent="1">
          <mxGeometry x="384" y="490" width="20" height="20" as="geometry" />
        </mxCell>
        <mxCell id="kHbyOIUyvhQ0lDHymLfj-14" value="\(-\pi q\)" style="text;html=1;align=center;verticalAlign=middle;whiteSpace=wrap;rounded=0;" vertex="1" parent="1">
          <mxGeometry x="380" y="470" width="24" height="30" as="geometry" />
        </mxCell>
        <mxCell id="kHbyOIUyvhQ0lDHymLfj-15" value="" style="shape=waypoint;sketch=0;fillStyle=solid;size=6;pointerEvents=1;points=[];fillColor=none;resizable=0;rotatable=0;perimeter=centerPerimeter;snapToPoint=1;" vertex="1" parent="1">
          <mxGeometry x="324" y="430" width="20" height="20" as="geometry" />
        </mxCell>
        <mxCell id="kHbyOIUyvhQ0lDHymLfj-16" value="\(-9q\)" style="text;html=1;align=center;verticalAlign=middle;whiteSpace=wrap;rounded=0;" vertex="1" parent="1">
          <mxGeometry x="320" y="410" width="24" height="30" as="geometry" />
        </mxCell>
        <mxCell id="kHbyOIUyvhQ0lDHymLfj-19" value="\(p\)" style="text;html=1;align=center;verticalAlign=middle;whiteSpace=wrap;rounded=0;fontColor=#9800C7;" vertex="1" parent="1">
          <mxGeometry x="714" y="405" width="24" height="30" as="geometry" />
        </mxCell>
        <mxCell id="kHbyOIUyvhQ0lDHymLfj-20" value="" style="endArrow=none;html=1;rounded=0;fillColor=#fad9d5;strokeColor=#ae4132;" edge="1" parent="1">
          <mxGeometry width="50" height="50" relative="1" as="geometry">
            <mxPoint x="630" y="440" as="sourcePoint" />
            <mxPoint x="724" y="440" as="targetPoint" />
          </mxGeometry>
        </mxCell>
        <mxCell id="kHbyOIUyvhQ0lDHymLfj-21" value="" style="endArrow=none;html=1;rounded=0;dashed=1;fillColor=#fad9d5;strokeColor=#ae4132;" edge="1" parent="1">
          <mxGeometry width="50" height="50" relative="1" as="geometry">
            <mxPoint x="420" y="440" as="sourcePoint" />
            <mxPoint x="630" y="440" as="targetPoint" />
          </mxGeometry>
        </mxCell>
        <mxCell id="kHbyOIUyvhQ0lDHymLfj-23" value="\(\bar r\)" style="text;html=1;align=center;verticalAlign=middle;whiteSpace=wrap;rounded=0;fontColor=#821C1C;" vertex="1" parent="1">
          <mxGeometry x="620" y="405" width="24" height="30" as="geometry" />
        </mxCell>
        <mxCell id="kHbyOIUyvhQ0lDHymLfj-25" value="" style="shape=waypoint;sketch=0;fillStyle=solid;size=6;pointerEvents=1;points=[];fillColor=#e1d5e7;resizable=0;rotatable=0;perimeter=centerPerimeter;snapToPoint=1;strokeColor=#9673a6;" vertex="1" parent="1">
          <mxGeometry x="714" y="430" width="20" height="20" as="geometry" />
        </mxCell>
      </root>
    </mxGraphModel>
  </diagram>
</mxfile>
